<svg aria-hidden="true" style="position:absolute;width:0;height:0" xmlns="http://www.w3.org/2000/svg" overflow="hidden"><defs><symbol id="icon-audio_book" viewBox="0 0 37 32"><path d="M2.284 29.826h12.221C15.124 31.147 16.42 32 17.883 32h.772c1.464 0 2.759-.853 3.379-2.174h12.228c1.26 0 2.284-1.054 2.284-2.349V4.965c0-1.295-1.025-2.349-2.284-2.349h-1.233V1.567c0-.864-.683-1.566-1.523-1.566H5.033c-.839 0-1.523.702-1.523 1.566v1.049H2.284C1.024 2.616 0 3.67 0 4.965v22.512c0 1.295 1.025 2.349 2.284 2.349zm29.22-4.832h-12.47V6.798c2.882.388 5.117 2.924 5.117 5.992v.706l-.181-.041c-.196-.043-.402-.007-.573.105s-.291.289-.334.492l-1.212 5.672c-.09.422.17.839.58.932l2.619.594c.135.029.273.045.41.045.921 0 1.706-.648 1.906-1.578l.701-3.28c.231-1.077-.433-2.148-1.483-2.388l-.912-.207v-1.051c0-3.934-2.915-7.179-6.64-7.575v-3.65h12.471zm-7.117-9.84l1.87.424a.435.435 0 01.325.522l-.701 3.28a.45.45 0 01-.507.34l-1.872-.424zM5.033 1.566h12.479v3.649c-3.728.392-6.647 3.64-6.647 7.576v1.051l-.913.207a1.94 1.94 0 00-1.222.877c-.28.451-.373.988-.259 1.509l.7 3.277c.19.917.992 1.583 1.908 1.583.138 0 .275-.015.416-.046l2.608-.593a.783.783 0 00.579-.932l-1.212-5.672c-.043-.203-.164-.38-.334-.492s-.378-.148-.574-.105l-.174.04v-.705c0-3.071 2.239-5.609 5.124-5.993v18.197H5.033V3.398zm7.113 13.588l.886 4.141-1.862.423a.433.433 0 01-.512-.337l-.701-3.284a.442.442 0 01.055-.328.43.43 0 01.268-.192zM1.523 4.964c0-.432.341-.783.761-.783H3.51v20.813c0 .864.683 1.566 1.523 1.566h26.473c.839 0 1.523-.702 1.523-1.566V4.181h1.233c.42 0 .761.351.761.783v22.512a.773.773 0 01-.761.783H21.516a.763.763 0 00-.728.553c-.289.97-1.147 1.621-2.133 1.621h-.772c-.983 0-1.84-.649-2.136-1.63a.764.764 0 00-.725-.544H2.284a.773.773 0 01-.761-.783z"/></symbol><symbol id="icon-cellphone" viewBox="0 0 33 32"><path d="M4.848.003a2.083 2.083 0 00-1.449.678L.698 3.65c.004-.009-.011-.008-.087.101a.662.662 0 00-.093.179l-.001.005C-.582 7.437.155 11.289 1.95 14.953S6.609 22.123 9.896 25c3.288 2.877 6.997 5.128 10.534 6.244s6.966 1.102 9.507-.742a.638.638 0 00.078-.067c.067-.067.069-.075.058-.065l.01-.013 2.688-2.956a2.103 2.103 0 00-.139-2.956l-6.377-5.799a2.103 2.103 0 00-2.956.138l-2.885 3.173c-2.342-.678-4.344-1.828-6.27-3.579s-3.26-3.637-4.157-5.905L12.871 9.3a2.103 2.103 0 00-.138-2.956L6.356.544A2.091 2.091 0 004.849.005zm.06 1.301a.781.781 0 01.563.209l6.377 5.8a.766.766 0 01.052 1.104l-3.188 3.504a.655.655 0 00-.129.67l-.001-.005c.968 2.641 2.529 4.807 4.677 6.761s4.45 3.304 7.171 4.018a.653.653 0 00.651-.193l3.189-3.505a.765.765 0 011.103-.051l6.378 5.8c.328.299.35.775.051 1.103l-2.666 2.93c-2.085 1.497-5.023 1.581-8.313.542-3.303-1.043-6.889-3.202-10.062-5.98s-5.935-6.169-7.633-9.633c-1.68-3.429-2.289-6.895-1.365-9.95l2.604-2.862a.779.779 0 01.541-.261z"/></symbol><symbol id="icon-check" viewBox="0 0 39 32"><path d="M34.457 1.514a29.389 29.389 0 00-4.265 2.379c-2.731 1.797-5.228 3.936-7.57 6.218-2.341 2.287-4.52 4.735-6.581 7.28-.515.636-2.823 3.47-2.823 3.47L3.622 6.481-.001 16.523 12.976 32c1.26-2.551 2.473-5.07 3.662-7.258.296-.556.605-1.08.901-1.612 0 0 1.523-2.677 1.923-3.352 1.602-2.697 3.333-5.325 5.239-7.821 1.908-2.491 3.983-4.87 6.335-6.961a28.384 28.384 0 013.75-2.872c1.332-.848 2.747-1.591 4.261-2.125-1.575.31-3.111.848-4.592 1.514z"/></symbol><symbol id="icon-commun" viewBox="0 0 32 32"><path d="M1.993 12.558v2.831a.5.5 0 00.189.39 11.099 11.099 0 006.837 2.362c.74 0 1.482-.077 2.206-.224a12.01 12.01 0 004.89 1.032c1.707 0 3.351-.349 4.89-1.032 3.091.624 6.384-.046 9.042-2.138a.495.495 0 00.189-.39v-2.831a1.2 1.2 0 00-.575-1.027l-3.867-2.176c.846-1.073 1.476-2.602 1.586-3.913.321-2.256-1.518-4.646-4.166-4.646a4.208 4.208 0 00-2.948 1.227c-.027.027-.058.049-.084.076-.024.025-.043.054-.067.08-.016.017-.029.036-.044.053C19.314.852 17.86 0 16.147 0c-.166 0-.33.011-.492.028-.01-.001-.018-.006-.028-.006-.092 0-.287.024-.391.054-.015.004-.026.015-.041.021a4.483 4.483 0 00-3.013 2.156A4.176 4.176 0 009.003.796c-3.908 0-5.642 4.612-2.557 8.581l-3.903 2.167a1.192 1.192 0 00-.553 1.014zm19.003 4.27c-.084.041-.167.085-.251.123l-.002.001a11.007 11.007 0 01-4.627 1.006 11.023 11.023 0 01-6.674-2.228v-2.87c0-.098.047-.184.102-.221l4.542-2.524c.565.48 1.287.832 2.035.832.721 0 1.499-.357 2.052-.843l4.487 2.52c.083.053.13.139.13.237v2.87c-.571.429-1.173.795-1.794 1.098zm8.158-4.446a.201.201 0 01.092.176v2.587a9.986 9.986 0 01-6.737 1.98c.369-.23.771-.516 1.083-.76a.496.496 0 00.19-.39v-3.114c0-.435-.218-.835-.61-1.087l-2.383-1.339.58-.321c.703.573 1.307.744 1.848.744.662 0 1.36-.325 1.878-.759zM23.216 1.788c1.38 0 2.593.902 3.021 2.142A3.703 3.703 0 0124 2.788a.494.494 0 00-.789.084 3.684 3.684 0 01-2.548 1.76v-.003a4.786 4.786 0 00-.162-1.329c.563-.902 1.609-1.513 2.713-1.513zm-2.66 3.856a4.642 4.642 0 003.164-1.762 4.684 4.684 0 002.702 1.056c-.007 1.792-1.471 4.927-3.206 4.927-1.337 0-2.479-1.912-2.905-3.238a8.15 8.15 0 00.245-.983zm.101 3.729l-.886.491-.895-.502c.332-.413.636-.893.896-1.413.25.526.55 1.01.884 1.425zM19.32 6.465c-.478 1.427-1.705 3.49-3.199 3.49-1.742 0-3.226-2.864-3.509-4.696.075-.019 2.43.126 4.05-2.001.822.688 1.932 1.143 3.011 1.188.013.647-.144 1.406-.352 2.018zM16.15.992c2.78 0 3.309 2.392 3.352 2.442a4.123 4.123 0 01-2.563-1.276.497.497 0 00-.789.087 4.073 4.073 0 01-3.58 2.022c.136-1.822 1.596-3.274 3.58-3.274zm-3.689 6.946c.257.515.563 1.006.913 1.438l-.875.487-.907-.51a7.76 7.76 0 00.87-1.415zm-3.455-6.15c1.125 0 2.155.571 2.729 1.514-.029.1-.106.498-.117.548a3.675 3.675 0 01-1.821-1.062.496.496 0 00-.788.086 3.712 3.712 0 01-3.177 1.815c.158-1.627 1.518-2.9 3.174-2.9zm-3.13 3.89a4.711 4.711 0 003.643-1.796 4.624 4.624 0 002.055.961c.029.575.179 1.273.35 1.789-.274.84-.799 1.841-1.451 2.505l-.014.01c-.408.43-.988.719-1.444.719-1.594 0-2.841-2.508-3.14-4.188zm-2.891 6.88c0-.075.033-.139.067-.162l4.116-2.284c.247.206.304.229.353.265.484.322.928.482 1.534.482.645 0 1.232-.273 1.749-.694.029-.023.06-.045.088-.068l.587.33-2.446 1.361a1.269 1.269 0 00-.584 1.071v3.114c0 .152.07.296.19.39.317.249.727.539 1.083.761a10.024 10.024 0 01-6.737-1.98z"/><path d="M31.259 20.781a2.06 2.06 0 00-2.007-.11l-6.119 2.956a2.111 2.111 0 00-2.107-2.072l-3.509.001c-1.73-1.504-3.941-2.425-5.952-2.474-1.983-.047-3.763-.06-4.593-.064v-1.002H0v11.517h6.972v-1.379c1.912 1.097 6.939 3.845 9.325 3.845.054 0 .107-.001.158-.004 4.196-.235 14.091-7.198 14.743-7.661a2.08 2.08 0 001.034-1.796c0-.719-.364-1.376-.973-1.758zM5.98 28.542H.992v-9.533H5.98zm24.707-5.057a.296.296 0 00-.044.028c-.102.073-10.281 7.271-14.244 7.494a2.354 2.354 0 01-.121.003c-2.092 0-7.194-2.753-9.307-4.001v-6.997c.827.004 2.597.017 4.569.064 1.837.044 3.876.921 5.456 2.346l.141.128 3.887-.001c.617 0 1.119.502 1.119 1.119s-.502 1.119-1.119 1.119h-7.142v.992h7.142c.684 0 1.288-.333 1.674-.839l6.984-3.373c.343-.167.725-.146 1.049.057s.508.537.508.918c0 .391-.212.753-.553.945zM15.62 12.158h.992v.92h-.992v-.92zm0 1.834h.992v.92h-.992v-.92zm0 1.834h.992v.92h-.992v-.92z"/></symbol><symbol id="icon-compfire" viewBox="0 0 23 32"><path d="M21.671 16.593c-.281-.635-.669-1.261-1.237-1.983-1.431-1.814-1.867-5.858-1.872-5.897a.486.486 0 00-.849-.271c-1.707 1.925-.989 4.898-.601 6.086.107.325.223.708.305 1.096.63 3.138-.587 4.559-.873 4.845-.276.078-.466.039-.64-.15-.601-.664-.8-2.842-.519-5.679a5.838 5.838 0 00-.039-1.581c-.593-3.487-2.768-5.724-3.322-6.508C10.501 4.281 10.346.504 10.341.47a.476.476 0 00-.267-.417.48.48 0 00-.49.034C7.043 1.828 7.261 6.023 7.615 8.365c.082.543.242 1.096.519 1.794.984 2.498-.194 5.722-.204 5.752s-.019.053-.024.082c-.15.795-.402 1.271-.684 1.271a.32.32 0 01-.092-.015c-.344-.073-.524-.441-.529-.761-.019-4.137-4.137-5.528-4.18-5.543a.48.48 0 00-.514.146.48.48 0 00-.068.533c.048.102.204.548.097 2.124a18.25 18.25 0 01-.761 4.161c-.98 3.22-.824 6.27-.815 6.416.753 8.259 12.533 9.706 19.524 5.053.766-.509 1.392-1.091 1.852-1.731 2.58-3.589 1.062-8.462-.068-11.052zm-17.919 7.89a.482.482 0 01-.456.509h-.029a.485.485 0 01-.485-.456c-.044-.708-.034-1.45.019-2.255a.49.49 0 01.519-.451c.267.019.47.252.451.519a15.791 15.791 0 00-.019 2.134zm.237-4.297a.483.483 0 01-.48.427c-.019 0-.039 0-.063-.005a.489.489 0 01-.422-.538l.233-1.872a.486.486 0 11.965.121zM18.39 6.631a.484.484 0 01-.405-.553c.03-.197.206-1.206.681-1.713a.484.484 0 11.708.664c-.201.215-.373.829-.43 1.197a.485.485 0 01-.553.405zM.71 9.047c-.093-.361-.323-.955-.545-1.15a.484.484 0 11.639-.729c.523.458.796 1.445.845 1.638a.486.486 0 01-.94.241z"/></symbol><symbol id="icon-female_student" viewBox="0 0 28 32"><path d="M.06 32h27.738c.137-3.15-.089-8.376-2.034-10.863l-.07-.089-4.25-2.125c.092-.31.138-.594.156-.803a1.466 1.466 0 00-.104-.699c-.701-1.671-2.185-2.55-3.001-2.924a5.148 5.148 0 00.486-1.582 1.36 1.36 0 00.955-.98l.496-2.007a1.351 1.351 0 00-.46-1.378c1.399-3.163-.944-6.146-1.072-6.303C16.363-.484 13.158.026 12.989.057c-4.625.964-6.41 4.494-5.402 8.633a1.352 1.352 0 00-.313 1.238l.498 2.009c.121.483.49.846.948.977a5.166 5.166 0 001.193 2.639v1.591c-6.637 3.384-2.432 1.225-7.75 3.904-.01.05-2.496 2.68-2.126 10.475zm26.774-1h-4.565v-1.91l3.019-6.883c1.513 2.5 1.569 7.273 1.546 8.792zm-6.231-12.965c-.176 2.015-1.286 1.406-1.971 2.959-.539-.59-.701-1.297-.556-2.055.262-1.391-.591-1.804-.38-3.265l.032-.033v-.005c.018-.02.186-.219.235-.282 1.806.784 2.676 2.242 2.64 2.681zm-9.689-1.583a5.157 5.157 0 005.773.077c.116 1.149.567 1.379.407 2.224-.03.157-.046.312-.056.464l-3.109 3.489-3.974-4.462.959-.499v-1.293zm-1.25-4.27V6.849c.484-.891 1.143-1.537 1.963-1.925 2.196 1.237 4.723 3.083 6.418 4.941-.002 2.366.007 2.372-.009 2.567l-.001.012a4.186 4.186 0 01-4.181 3.929 4.195 4.195 0 01-4.189-4.192zm-.619 6.544l4.884 5.482 3.279-3.68a3.2 3.2 0 00.3.614l-3.579 4.457-5.337-6.647zm10-7.349V9.832l.373-.426c.021.782.105-.141-.373 1.97zm-5.87-10.338c.198.012 2.864-.404 4.97 1.861.083.104 1.798 2.303 1.109 4.71-.236-1.071-.647-2.443-1.296-3.098l-.71.704c.641.647 1.062 2.616 1.223 3.637-2.941-3.065-6.736-5.005-6.788-5.037-.19.118-1.796.422-2.962 2.679l-.056.108v1.658l-.147.002c-.741-3.562.678-6.392 4.657-7.222zM8.412 9.29l.252 1.018v1.07l-.419-1.69c-.062-.252.126-.348.167-.398zm-.735 10.12l6.252 7.786 4.23-5.268c.46.41.681.468 1.657.968l-.329-1.111c-.084-.282.247-.735.447-.943a3.019 3.019 0 001.095-1.008l3.451 1.726-3.212 7.321V31H6.588v-2.119l-3.213-7.32zm-5.108 2.8l3.02 6.881V31H1.024c-.023-1.519.034-6.289 1.545-8.79z"/></symbol><symbol id="icon-insurance" viewBox="0 0 27 32"><path d="M.541 13.713c0 .356-.541.356-.541 0C0 6.141 6.141 0 13.713 0c7.575 0 13.713 6.141 13.713 13.713 0 .356-.537.356-.537 0 0-5.118-8.41-5.121-8.41 0 0 .356-.554.356-.554 0 0-5.105-8.423-5.105-8.423 0 0 .356-.554.356-.554 0 0-5.095-8.407-5.131-8.407 0zm8.455-1.988c.146-2.946.609-5.587 1.282-7.604.537-1.602 1.217-2.82 1.988-3.503C6.484 1.249 1.803 5.632.758 11.317c1.991-2.871 6.588-2.642 8.239.408zm8.886-.133c-.149-2.833-.599-5.367-1.246-7.3-1.67-5.002-4.176-5.002-5.846 0-.647 1.933-1.094 4.467-1.246 7.3 1.797-3.053 6.542-3.053 8.339 0zm8.786-.275A13.174 13.174 0 0015.16.618c.774.683 1.45 1.9 1.988 3.503.673 2.017 1.136 4.658 1.282 7.604 1.661-3.066 6.27-3.247 8.239-.408zm-14.755 8.67v-2.784c-.502.333-.897.848-.897 1.476 0 .612.401 1.016.897 1.308zm.541.864c-.961-.44-1.975-.955-1.975-2.172 0-1.256.955-1.884 1.975-2.353zm3.059 3.337v2.816c.508-.337.906-.855.906-1.483 0-.618-.408-1.036-.906-1.334zm-.538-.867c.965.447 1.984.978 1.984 2.201 0 1.259-.961 1.887-1.984 2.353z"/><path d="M15.513 14.033c2.214.511 4.49 2.169 4.49 4.645 0 2.12-3.584 2.043-3.584 0 0-.631-.398-1.149-.906-1.483v3.962c2.049.67 4.497 1.871 4.497 4.364 0 2.48-2.276 4.134-4.497 4.642-.01 2.36-3.593 2.357-3.6-.003-1.262-.291-2.36-.881-3.153-1.661-.832-.822-1.324-1.855-1.324-2.978 0-2.088 3.58-2.088 3.58 0 0 .625.395 1.14.897 1.473v-3.959c-2.033-.657-4.493-1.894-4.493-4.364 0-2.48 2.276-4.134 4.493-4.642.01-2.36 3.593-2.357 3.6.003zm-3.059.007v.431c-2.107.418-4.497 1.768-4.497 4.202 0 2.34 2.622 3.389 4.497 3.969v5.231c-1.013-.463-1.975-1.088-1.975-2.35 0-1.379-2.506-1.379-2.506 0 0 .974.434 1.874 1.165 2.593.929.919 2.056 1.356 3.315 1.606v.434c0 1.661 2.522 1.661 2.522 0v-.431c2.114-.421 4.493-1.771 4.493-4.202 0-2.363-2.616-3.38-4.493-3.972v-5.228c1.016.463 1.984 1.088 1.984 2.357 0 1.343 2.502 1.398 2.502 0 0-2.431-2.376-3.784-4.487-4.205v-.434c0-1.661-2.522-1.661-2.522 0z"/></symbol><symbol id="icon-mobile" viewBox="0 0 31 32"><path d="M29.302 0H13.681a1.846 1.846 0 00-1.844 1.844V8.31L.232 13.181a.378.378 0 00-.048.672l1.48.886v9.439a1.706 1.706 0 00-1.325 1.66v.91c0 .209.169.378.378.378h2.65a.378.378 0 00.378-.378v-.91c0-.809-.568-1.486-1.325-1.659v-8.988l1.17.7c-.036.27-.005-.47-.017 4.395 0 1.599 4.096 2.456 8.264 2.505v7.367a1.841 1.841 0 001.843 1.841h15.621a1.844 1.844 0 001.842-1.842c0 .05-.002-1.56 0-28.313A1.856 1.856 0 0029.302 0zM2.989 25.839v.532H1.095v-.532a.949.949 0 111.895 0zm26.313 5.403H13.681a1.09 1.09 0 01-1.088-1.085v-2.553h17.792v2.554c0 .592-.493 1.084-1.084 1.084zm1.084-4.394H12.593v-4.054c2.035-.023 8.269-.471 8.269-2.507-.002-3.056.005-4.295-.01-4.4l3.394-2.033a.379.379 0 00-.048-.672L12.593 8.311V5.154h17.793v21.695zm-18.171-9.07c-2.096 0-6.133.271-7.886 1.416.011-3.502-.122-3.274.31-3.571 1.089-.802 4.205-1.362 7.576-1.362 1.471 0 7.891.404 7.891 1.764v3.17c-1.77-1.156-5.786-1.416-7.891-1.416zm.378-15.934c0-.599.487-1.087 1.087-1.087h15.621c.6 0 1.085.494 1.085 1.086v2.554H12.594zm-.378 7.127l11.002 4.618-2.726 1.631c-1.449-1.437-6.244-1.716-8.276-1.716-2.035 0-6.83.28-8.276 1.716l-2.727-1.632zM4.329 20.287c0-.612 2.708-1.753 7.886-1.753 5.181 0 7.891 1.142 7.891 1.753s-2.71 1.754-7.891 1.754c-5.178 0-7.886-1.142-7.886-1.754z"/><path d="M21.491 28.174c-.689 0-1.25.561-1.25 1.25s.561 1.25 1.25 1.25 1.25-.561 1.25-1.25-.561-1.25-1.25-1.25zm0 1.744a.495.495 0 010-.989.494.494 0 110 .989zM20.049 2.2h2.883v.756h-2.883V2.2z"/></symbol><symbol id="icon-open_book" viewBox="0 0 44 32"><path d="M5.477 4.52h13.745v1.029H5.477V4.52zm2.059 3.837h11.687v1.029H7.536V8.357zm-2.059 3.838h13.745v1.029H5.477v-1.029zm2.059 3.837h11.687v1.029H7.536v-1.029zm-2.059 3.837h13.745v1.029H5.477v-1.029zm2.059 3.838h11.687v1.029H7.536v-1.029zM24.345 4.52H38.09v1.029H24.345V4.52zm0 3.837h11.687v1.029H24.345V8.357zm0 3.838H38.09v1.029H24.345v-1.029zm0 3.837h11.687v1.029H24.345v-1.029zm0 3.837H38.09v1.029H24.345v-1.029zm0 3.838h11.687v1.029H24.345v-1.029z"/><path d="M43.053 3.348h-1.887V.514a.515.515 0 00-.515-.515H25.269a3.981 3.981 0 00-3.485 2.026 3.98 3.98 0 00-3.486-2.026H2.916a.516.516 0 00-.515.515v2.834H.514a.516.516 0 00-.515.515v27.622c0 .284.231.515.515.515h42.538c.284 0 .515-.23.515-.515V3.863a.515.515 0 00-.515-.515zM25.269 1.029h14.868V28.59H24.171a3.03 3.03 0 00-1.873.685V3.993a2.954 2.954 0 012.971-2.964zm-21.838 0h14.868a2.947 2.947 0 012.965 2.851c.001.022.003.091.006.113v25.28a3.008 3.008 0 00-1.866-.683H3.432V1.029zM1.029 4.378h1.372v24.727c0 .284.231.515.515.515h16.487c.784 0 1.542.515 1.785 1.351H1.029zm41.509 26.593H22.379a1.86 1.86 0 011.792-1.351h16.48c.284 0 .515-.23.515-.515V4.378h1.372z"/></symbol><symbol id="icon-study" viewBox="0 0 30 32"><path d="M29.677 4.975l-.001-.002a.32.32 0 00-.06-.09L24.817.084a.27.27 0 00-.041-.033l-.009-.006c-.012-.007-.024-.014-.036-.019L24.72.021a.277.277 0 00-.099-.02H3.473a.283.283 0 00-.283.284v29.271c0 .019.002.037.006.056l.007.023.009.03.014.026.013.023c.01.014.021.028.033.04l.003.003 2.162 2.161c.111.111.29.111.401 0L7.8 29.957l1.961 1.961c.055.056.128.083.201.083s.145-.027.2-.083l1.961-1.96 1.962 1.96c.111.111.29.111.401 0l1.961-1.96 1.961 1.96c.111.111.29.111.401 0l1.963-1.961 1.961 1.961a.283.283 0 00.401 0l1.961-1.96 1.962 1.96c.11.111.29.111.401 0l2.162-2.161.011-.014.024-.029c.007-.009.011-.02.016-.03.003-.007.007-.012.009-.019.006-.013.009-.026.012-.039l.005-.013a.278.278 0 00.006-.058V5.085a.287.287 0 00-.023-.108zM24.899.969l3.831 3.83h-3.831zm4.232 28.468l-1.878 1.878-1.962-1.961a.285.285 0 00-.401 0l-1.961 1.961-1.961-1.961a.285.285 0 00-.401 0l-1.962 1.961-1.96-1.96v-.001a.284.284 0 00-.401 0l-1.96 1.96-1.962-1.961a.285.285 0 00-.401 0L9.96 31.314l-1.961-1.961a.285.285 0 00-.401 0l-1.962 1.961-1.878-1.878V.566h20.576v4.516c0 .157.127.284.284.284h4.515z"/><path d="M5.872 3.251h9.29a.284.284 0 100-.568h-9.29a.284.284 0 100 .568zm0 1.754h14.899a.284.284 0 100-.568H5.872a.284.284 0 100 .568zM5.588 6.58v9.186c0 .157.127.284.284.284h21.144a.283.283 0 00.283-.284V6.58a.284.284 0 00-.283-.284H5.872a.284.284 0 00-.284.284zm6.27.284h14.873v2.442H11.858zm0 3.009h14.873v2.441H11.858zm0 3.008h14.873v2.602H11.858zM6.156 6.864h5.135v2.442H6.156zm0 3.009h5.135v2.441H6.156zm0 3.008h5.135v2.602H6.156zm20.86 4.446H5.872a.284.284 0 00-.284.284v9.186a.283.283 0 10.567 0v-2.885h5.135v2.885c0 .157.127.283.283.283s.284-.127.284-.283v-2.885H26.73v2.885a.283.283 0 10.567 0v-9.186a.282.282 0 00-.283-.284zm-15.725 6.017H6.156v-2.44h5.135zm0-3.008H6.156v-2.441h5.135zm15.441 3.008H11.859v-2.44h14.873zm0-3.008H11.859v-2.441h14.873zM1.844 0a.284.284 0 00-.284.284v29.271a.284.284 0 00.568 0V.284A.284.284 0 001.844 0zM.284 0A.284.284 0 000 .284v29.271a.284.284 0 00.567 0V.284A.284.284 0 00.284 0z"/></symbol><symbol id="icon-vk" viewBox="0 0 57 32"><path fill="var(--color1, #436eab)" d="M48.666 20.347c1.876 1.831 3.855 3.554 5.538 5.57.743.896 1.447 1.82 1.985 2.86.763 1.478.072 3.104-1.253 3.193l-8.238-.004c-2.125.176-3.82-.679-5.245-2.132-1.141-1.162-2.197-2.398-3.294-3.599-.45-.491-.92-.953-1.482-1.318-1.125-.73-2.101-.506-2.743.666-.654 1.193-.803 2.514-.867 3.843-.088 1.94-.675 2.45-2.623 2.539-4.164.196-8.116-.434-11.788-2.534-3.237-1.852-5.747-4.466-7.931-7.426C6.472 16.242 3.214 9.909.286 3.398-.373 1.931.109 1.144 1.727 1.116c2.687-.052 5.374-.048 8.065-.004 1.092.016 1.815.642 2.237 1.674 1.454 3.575 3.233 6.976 5.466 10.129.595.839 1.201 1.679 2.065 2.27.955.654 1.683.437 2.132-.627.285-.675.41-1.402.474-2.124.213-2.486.241-4.969-.132-7.446-.229-1.546-1.1-2.547-2.643-2.84-.787-.149-.67-.442-.289-.892.662-.775 1.285-1.258 2.526-1.258h9.31c1.466.289 1.791.948 1.992 2.422l.008 10.341c-.016.571.285 2.265 1.313 2.643.823.269 1.365-.389 1.859-.911 2.229-2.366 3.82-5.162 5.241-8.057.631-1.273 1.173-2.595 1.699-3.916.389-.98 1.001-1.462 2.105-1.441l8.96.008c.266 0 .535.004.792.048 1.51.257 1.924.907 1.457 2.381-.735 2.313-2.164 4.241-3.562 6.178-1.494 2.068-3.093 4.064-4.574 6.144-1.362 1.9-1.253 2.857.438 4.507z"/></symbol></defs></svg>