<svg aria-hidden="true" style="position: absolute; width: 0; height: 0; overflow: hidden;" version="1.1" xmlns="http://www.w3.org/2000/svg" xmlns:xlink="http://www.w3.org/1999/xlink">
<defs>
<symbol id="icon-audio_book" viewBox="0 0 37 32">
<title>audio_book</title>
<path d="M2.284 29.826h12.221c0.619 1.321 1.915 2.174 3.378 2.174h0.772c1.464 0 2.759-0.853 3.379-2.174h12.228c1.26 0 2.284-1.054 2.284-2.349v-22.512c0-1.295-1.025-2.349-2.284-2.349h-1.233v-1.049c0-0.864-0.683-1.566-1.523-1.566h-26.473c-0.839 0-1.523 0.702-1.523 1.566v1.049h-1.226c-1.26 0-2.284 1.054-2.284 2.349v22.512c0 1.295 1.025 2.349 2.284 2.349zM31.504 24.994h-12.47v-18.196c2.882 0.388 5.117 2.924 5.117 5.992v0.706l-0.181-0.041c-0.196-0.043-0.402-0.007-0.573 0.105s-0.291 0.289-0.334 0.492l-1.212 5.672c-0.090 0.422 0.17 0.839 0.58 0.932l2.619 0.594c0.135 0.029 0.273 0.045 0.41 0.045 0.921 0 1.706-0.648 1.906-1.578l0.701-3.28c0.231-1.077-0.433-2.148-1.483-2.388l-0.912-0.207v-1.051c0-3.934-2.915-7.179-6.64-7.575v-3.65h12.471zM24.387 15.154l1.87 0.424c0.233 0.054 0.376 0.282 0.325 0.522l-0.701 3.28c-0.051 0.237-0.306 0.384-0.507 0.34l-1.872-0.424zM5.033 1.566h12.479v3.649c-3.728 0.392-6.647 3.64-6.647 7.576v1.051l-0.913 0.207c-0.509 0.116-0.943 0.428-1.222 0.877-0.28 0.451-0.373 0.988-0.259 1.509l0.7 3.277c0.19 0.917 0.992 1.583 1.908 1.583 0.138 0 0.275-0.015 0.416-0.046l2.608-0.593c0.41-0.093 0.669-0.51 0.579-0.932l-1.212-5.672c-0.043-0.203-0.164-0.38-0.334-0.492s-0.378-0.148-0.574-0.105l-0.174 0.040v-0.705c0-3.071 2.239-5.609 5.124-5.993v18.197h-12.479v-21.596zM12.146 15.154l0.886 4.141-1.862 0.423c-0.229 0.053-0.462-0.102-0.512-0.337l-0.701-3.284c-0.025-0.114-0.005-0.231 0.055-0.328 0.061-0.098 0.157-0.166 0.268-0.192zM1.523 4.964c0-0.432 0.341-0.783 0.761-0.783h1.226v20.813c0 0.864 0.683 1.566 1.523 1.566h26.473c0.839 0 1.523-0.702 1.523-1.566v-20.813h1.233c0.42 0 0.761 0.351 0.761 0.783v22.512c0 0.432-0.341 0.783-0.761 0.783h-12.746c-0.335 0-0.63 0.224-0.728 0.553-0.289 0.97-1.147 1.621-2.133 1.621h-0.772c-0.983 0-1.84-0.649-2.136-1.63-0.101-0.324-0.394-0.544-0.725-0.544h-12.738c-0.42 0-0.761-0.351-0.761-0.783z"></path>
</symbol>
<symbol id="icon-cellphone" viewBox="0 0 33 32">
<title>cellphone</title>
<path d="M4.848 0.003c-0.536 0.025-1.063 0.253-1.449 0.678l-2.701 2.969c0.004-0.009-0.011-0.008-0.087 0.101-0.039 0.053-0.071 0.114-0.093 0.179l-0.001 0.005c-1.099 3.502-0.362 7.354 1.433 11.018s4.659 7.17 7.946 10.047c3.288 2.877 6.997 5.128 10.534 6.244s6.966 1.102 9.507-0.742c0.029-0.021 0.054-0.043 0.078-0.067l0-0c0.067-0.067 0.069-0.075 0.058-0.065l0.010-0.013 2.688-2.956c0.772-0.849 0.71-2.184-0.139-2.956l-6.377-5.799c-0.849-0.772-2.184-0.711-2.956 0.138l-2.885 3.173c-2.342-0.678-4.344-1.828-6.27-3.579s-3.26-3.637-4.157-5.905l2.884-3.173c0.772-0.849 0.711-2.184-0.138-2.956l-6.377-5.8c-0.425-0.386-0.971-0.564-1.507-0.539zM4.908 1.304c0.198-0.009 0.399 0.060 0.563 0.209l6.377 5.8c0.329 0.299 0.351 0.776 0.052 1.104l-3.188 3.504c-0.105 0.116-0.17 0.271-0.17 0.44 0 0.081 0.015 0.158 0.041 0.23l-0.001-0.005c0.968 2.641 2.529 4.807 4.677 6.761s4.45 3.304 7.171 4.018c0.050 0.014 0.107 0.021 0.166 0.021 0.192 0 0.365-0.082 0.485-0.214l0-0 3.189-3.505c0.299-0.328 0.775-0.35 1.103-0.051l6.378 5.8c0.328 0.299 0.35 0.775 0.051 1.103l-2.666 2.93c-2.085 1.497-5.023 1.581-8.313 0.542-3.303-1.043-6.889-3.202-10.062-5.98s-5.935-6.169-7.633-9.633c-1.68-3.429-2.289-6.895-1.365-9.95l2.604-2.862c0.149-0.164 0.344-0.252 0.541-0.261z"></path>
</symbol>
<symbol id="icon-check" viewBox="0 0 39 32">
<title>check</title>
<path d="M34.457 1.514c-1.484 0.664-2.907 1.475-4.265 2.379-2.731 1.797-5.228 3.936-7.57 6.218-2.341 2.287-4.52 4.735-6.581 7.28-0.515 0.636-2.823 3.47-2.823 3.47l-9.596-14.38-3.623 10.042 12.977 15.477c1.26-2.551 2.473-5.070 3.662-7.258 0.296-0.556 0.605-1.080 0.901-1.612 0 0 1.523-2.677 1.923-3.352 1.602-2.697 3.333-5.325 5.239-7.821 1.908-2.491 3.983-4.87 6.335-6.961 1.17-1.052 2.416-2.025 3.75-2.872 1.332-0.848 2.747-1.591 4.261-2.125-1.575 0.31-3.111 0.848-4.592 1.514z"></path>
</symbol>
<symbol id="icon-commun" viewBox="0 0 32 32">
<title>commun</title>
<path d="M1.993 12.558v2.831c0 0.152 0.070 0.295 0.189 0.39 1.935 1.523 4.363 2.362 6.837 2.362 0.74 0 1.482-0.077 2.206-0.224 1.544 0.683 3.188 1.032 4.89 1.032 1.707 0 3.351-0.349 4.89-1.032 3.091 0.624 6.384-0.046 9.042-2.138 0.12-0.094 0.189-0.238 0.189-0.39v-2.831c0-0.415-0.206-0.794-0.575-1.027l-3.867-2.176c0.846-1.073 1.476-2.602 1.586-3.913 0.321-2.256-1.518-4.646-4.166-4.646-1.113 0-2.171 0.458-2.948 1.227-0.027 0.027-0.058 0.049-0.084 0.076-0.024 0.025-0.043 0.054-0.067 0.080-0.016 0.017-0.029 0.036-0.044 0.053-0.757-1.38-2.211-2.232-3.924-2.232-0.166 0-0.33 0.011-0.492 0.028-0.010-0.001-0.018-0.006-0.028-0.006-0.092 0-0.287 0.024-0.391 0.054-0.015 0.004-0.026 0.015-0.041 0.021-1.28 0.259-2.363 1.034-3.013 2.156-0.781-0.911-1.93-1.457-3.179-1.457-3.908 0-5.642 4.612-2.557 8.581l-3.903 2.167c-0.346 0.219-0.553 0.598-0.553 1.014zM20.996 16.828c-0.084 0.041-0.167 0.085-0.251 0.123l-0 0c-0.001 0-0.001 0.001-0.002 0.001-1.452 0.667-3.009 1.006-4.627 1.006-1.614 0-3.17-0.338-4.629-1.007-0.71-0.323-1.397-0.734-2.045-1.221v-2.87c0-0.098 0.047-0.184 0.102-0.221l4.542-2.524c0.565 0.48 1.287 0.832 2.035 0.832 0.721 0 1.499-0.357 2.052-0.843l4.487 2.52c0.083 0.053 0.13 0.139 0.13 0.237v2.87c-0.571 0.429-1.173 0.795-1.794 1.098zM29.154 12.382c0.059 0.037 0.092 0.101 0.092 0.176v2.587c-1.968 1.477-4.337 2.148-6.737 1.98 0.369-0.23 0.771-0.516 1.083-0.76 0.12-0.094 0.19-0.238 0.19-0.39v-3.114c0-0.435-0.218-0.835-0.61-1.087l-2.383-1.339 0.58-0.321c0.703 0.573 1.307 0.744 1.848 0.744 0.662 0 1.36-0.325 1.878-0.759zM23.216 1.788c1.38 0 2.593 0.902 3.021 2.142-0.833-0.099-1.647-0.51-2.237-1.142-0.107-0.114-0.258-0.173-0.416-0.155-0.155 0.016-0.293 0.105-0.373 0.239-0.566 0.948-1.493 1.58-2.548 1.76 0-0.001-0-0.002-0-0.003 0.005-0.216-0.008-0.434-0.033-0.653-0.003-0.022-0.005-0.044-0.007-0.067-0.032-0.248-0.107-0.559-0.122-0.609 0.563-0.902 1.609-1.513 2.713-1.513zM20.556 5.644c1.253-0.137 2.386-0.767 3.164-1.762 0.767 0.629 1.74 1.010 2.702 1.056-0.007 1.792-1.471 4.927-3.206 4.927-1.337 0-2.479-1.912-2.905-3.238 0.108-0.341 0.187-0.669 0.245-0.983zM20.657 9.373l-0.886 0.491-0.895-0.502c0.332-0.413 0.636-0.893 0.896-1.413 0.25 0.526 0.55 1.010 0.884 1.425zM19.32 6.465c-0.478 1.427-1.705 3.49-3.199 3.49-1.742 0-3.226-2.864-3.509-4.696 0.075-0.019 2.43 0.126 4.050-2.001 0.822 0.688 1.932 1.143 3.011 1.188 0.013 0.647-0.144 1.406-0.352 2.018zM16.15 0.992c2.78 0 3.309 2.392 3.352 2.442-1.008-0.102-1.928-0.596-2.563-1.276-0.107-0.114-0.262-0.171-0.416-0.154-0.155 0.017-0.293 0.106-0.373 0.241-0.551 0.932-1.414 1.589-2.414 1.868-0.386 0.108-0.803 0.157-1.166 0.154 0.136-1.822 1.596-3.274 3.58-3.274zM12.461 7.938c0.257 0.515 0.563 1.006 0.913 1.438l-0.875 0.487-0.907-0.51c0.344-0.438 0.636-0.929 0.87-1.415zM9.006 1.788c1.125 0 2.155 0.571 2.729 1.514-0.029 0.1-0.106 0.498-0.117 0.548-0.69-0.165-1.324-0.533-1.821-1.062-0.107-0.114-0.258-0.17-0.416-0.154-0.155 0.017-0.293 0.106-0.372 0.24-0.663 1.119-1.881 1.815-3.177 1.815 0.158-1.627 1.518-2.9 3.174-2.9zM5.876 5.678c1.425-0.014 2.77-0.686 3.643-1.796 0.596 0.491 1.303 0.813 2.055 0.961 0.029 0.575 0.179 1.273 0.35 1.789-0.274 0.84-0.799 1.841-1.451 2.505-0.004 0.004-0.010 0.006-0.014 0.010-0.408 0.43-0.988 0.719-1.444 0.719-1.594 0-2.841-2.508-3.14-4.188zM2.985 12.558c0-0.075 0.033-0.139 0.067-0.162l4.116-2.284c0.247 0.206 0.304 0.229 0.353 0.265l-0 0c0.484 0.322 0.928 0.482 1.534 0.482 0.645 0 1.232-0.273 1.749-0.694 0.029-0.023 0.060-0.045 0.088-0.068l0.587 0.33-2.446 1.361c-0.366 0.236-0.584 0.636-0.584 1.071v3.114c0 0.152 0.070 0.296 0.19 0.39 0.317 0.249 0.727 0.539 1.083 0.761-2.434 0.166-4.803-0.528-6.737-1.98z"></path>
<path d="M31.259 20.781c-0.61-0.384-1.361-0.423-2.007-0.11l-6.119 2.956c-0.021-1.145-0.956-2.072-2.107-2.072l-3.509 0.001c-1.73-1.504-3.941-2.425-5.952-2.474-1.983-0.047-3.763-0.060-4.593-0.064v-1.002h-6.972v11.517h6.972v-1.379c1.912 1.097 6.939 3.845 9.325 3.845 0.054 0 0.107-0.001 0.158-0.004 4.196-0.235 14.091-7.198 14.743-7.661 0.638-0.37 1.034-1.056 1.034-1.796 0-0.719-0.364-1.376-0.973-1.758zM5.98 28.542h-4.988v-9.533h4.988zM30.687 23.485c-0.015 0.008-0.030 0.017-0.044 0.028-0.102 0.073-10.281 7.271-14.244 7.494-0.039 0.002-0.079 0.003-0.121 0.003-2.092 0-7.194-2.753-9.307-4.001v-6.997c0.827 0.004 2.597 0.017 4.569 0.064 1.837 0.044 3.876 0.921 5.456 2.346l0.141 0.128 3.887-0.001c0.617 0 1.119 0.502 1.119 1.119s-0.502 1.119-1.119 1.119h-7.142v0.992h7.142c0.684 0 1.288-0.333 1.674-0.839l6.984-3.373c0.343-0.167 0.725-0.146 1.049 0.057s0.508 0.537 0.508 0.918c0 0.391-0.212 0.753-0.553 0.945z"></path>
<path d="M15.62 12.158h0.992v0.92h-0.992v-0.92z"></path>
<path d="M15.62 13.992h0.992v0.92h-0.992v-0.92z"></path>
<path d="M15.62 15.826h0.992v0.92h-0.992v-0.92z"></path>
</symbol>
<symbol id="icon-compfire" viewBox="0 0 23 32">
<title>compfire</title>
<path d="M21.671 16.593c-0.281-0.635-0.669-1.261-1.237-1.983-1.431-1.814-1.867-5.858-1.872-5.897-0.019-0.194-0.155-0.354-0.335-0.412-0.184-0.058-0.383-0.005-0.514 0.141-1.707 1.925-0.989 4.898-0.601 6.086 0.107 0.325 0.223 0.708 0.305 1.096 0.63 3.138-0.587 4.559-0.873 4.845-0.276 0.078-0.466 0.039-0.64-0.15-0.601-0.664-0.8-2.842-0.519-5.679 0.058-0.577 0.044-1.096-0.039-1.581-0.593-3.487-2.768-5.724-3.322-6.508-1.523-2.27-1.678-6.047-1.683-6.081-0.005-0.179-0.107-0.339-0.267-0.417-0.155-0.078-0.344-0.068-0.49 0.034-2.541 1.741-2.323 5.936-1.969 8.278 0.082 0.543 0.242 1.096 0.519 1.794 0.984 2.498-0.194 5.722-0.204 5.752s-0.019 0.053-0.024 0.082c-0.15 0.795-0.402 1.271-0.684 1.271-0.029 0-0.058-0.005-0.092-0.015-0.344-0.073-0.524-0.441-0.529-0.761-0.019-4.137-4.137-5.528-4.18-5.543-0.184-0.058-0.388-0.005-0.514 0.146-0.131 0.15-0.155 0.359-0.068 0.533 0.048 0.102 0.204 0.548 0.097 2.124-0.092 1.416-0.349 2.818-0.761 4.161-0.98 3.22-0.824 6.27-0.815 6.416 0.753 8.259 12.533 9.706 19.524 5.053 0.766-0.509 1.392-1.091 1.852-1.731 2.58-3.589 1.062-8.462-0.068-11.052zM3.752 24.483c0.015 0.267-0.189 0.495-0.456 0.509h-0.029c-0.257 0-0.47-0.199-0.485-0.456-0.044-0.708-0.034-1.45 0.019-2.255 0.019-0.267 0.252-0.466 0.519-0.451 0.267 0.019 0.47 0.252 0.451 0.519-0.053 0.766-0.063 1.465-0.019 2.134zM3.989 20.186c-0.029 0.247-0.238 0.427-0.48 0.427-0.019 0-0.039 0-0.063-0.005-0.262-0.034-0.451-0.272-0.422-0.538l0.233-1.872c0.034-0.262 0.272-0.451 0.543-0.422 0.267 0.034 0.456 0.276 0.422 0.543z"></path>
<path d="M18.39 6.631c-0.265-0.041-0.446-0.288-0.405-0.553 0.030-0.197 0.206-1.206 0.681-1.713 0.183-0.196 0.489-0.206 0.686-0.022s0.205 0.49 0.022 0.686c-0.201 0.215-0.373 0.829-0.43 1.197-0.041 0.262-0.285 0.445-0.553 0.405z"></path>
<path d="M0.71 9.047c-0.093-0.361-0.323-0.955-0.545-1.15-0.202-0.177-0.222-0.483-0.045-0.684s0.482-0.222 0.684-0.045c0.523 0.458 0.796 1.445 0.845 1.638 0.066 0.259-0.090 0.523-0.349 0.59-0.265 0.067-0.525-0.094-0.591-0.349z"></path>
</symbol>
<symbol id="icon-female_student" viewBox="0 0 28 32">
<title>female_student</title>
<path d="M0.060 32c3.563 0 24.178 0 27.738 0 0.137-3.15-0.089-8.376-2.034-10.863l-0.070-0.089-4.25-2.125c0.092-0.31 0.138-0.594 0.156-0.803 0.021-0.25-0.014-0.486-0.104-0.699-0.701-1.671-2.185-2.55-3.001-2.924 0.249-0.499 0.409-1.035 0.486-1.582 0.462-0.13 0.834-0.494 0.955-0.98l0.496-2.007c0.088-0.354 0.033-0.721-0.156-1.033-0.081-0.135-0.186-0.248-0.304-0.345 1.399-3.163-0.944-6.146-1.072-6.303-2.537-2.731-5.742-2.221-5.911-2.19-4.625 0.964-6.41 4.494-5.402 8.633-0.299 0.329-0.424 0.788-0.313 1.238l0.498 2.009c0.121 0.483 0.49 0.846 0.948 0.977 0.142 1.002 0.568 1.909 1.193 2.639v1.591c-6.637 3.384-2.432 1.225-7.75 3.904-0.010 0.050-2.496 2.68-2.126 10.475zM26.834 31h-4.565v-1.91l3.019-6.883c1.513 2.5 1.569 7.273 1.546 8.792zM20.603 18.035c-0.176 2.015-1.286 1.406-1.971 2.959-0.539-0.59-0.701-1.297-0.556-2.055 0.262-1.391-0.591-1.804-0.38-3.265l0.032-0.033v-0.005c0.018-0.020 0.186-0.219 0.235-0.282 1.806 0.784 2.676 2.242 2.64 2.681zM10.914 16.452c0.838 0.579 1.851 0.921 2.939 0.921 1.025 0 1.999-0.297 2.834-0.844 0.116 1.149 0.567 1.379 0.407 2.224-0.030 0.157-0.046 0.312-0.056 0.464l-3.109 3.489-3.974-4.462 0.959-0.499v-1.293zM9.664 12.182v-1.934c0-0.712 0-3.538 0-3.399 0.484-0.891 1.143-1.537 1.963-1.925 2.196 1.237 4.723 3.083 6.418 4.941-0.002 2.366 0.007 2.372-0.009 2.567l-0.001 0.012c-0.132 2.148-1.906 3.929-4.181 3.929-2.212 0-4.048-1.729-4.181-3.951-0.007-0.080-0.008-0.159-0.008-0.241zM9.045 18.726l4.884 5.482 3.279-3.68c0.075 0.215 0.18 0.418 0.3 0.614l-3.579 4.457-5.337-6.647zM19.045 11.377v-1.545c0.044-0.050 0.417-0.476 0.373-0.426 0.021 0.782 0.105-0.141-0.373 1.97zM13.175 1.039c0.198 0.012 2.864-0.404 4.97 1.861 0.083 0.104 1.798 2.303 1.109 4.71-0.236-1.071-0.647-2.443-1.296-3.098l-0.71 0.704c0.641 0.647 1.062 2.616 1.223 3.637-2.941-3.065-6.736-5.005-6.788-5.037-0.19 0.118-1.796 0.422-2.962 2.679l-0.056 0.108v1.658c-0.050 0.001-0.197 0.002-0.147 0.002-0.741-3.562 0.678-6.392 4.657-7.222zM8.412 9.29l0.252 1.018v1.070l-0.419-1.69c-0.062-0.252 0.126-0.348 0.167-0.398zM7.677 19.41l6.252 7.786 4.23-5.268c0.46 0.41 0.681 0.468 1.657 0.968l-0.329-1.111c-0.084-0.282 0.247-0.735 0.447-0.943 0.446-0.241 0.817-0.584 1.095-1.008l3.451 1.726-3.212 7.321v2.119h-14.68v-2.119l-3.213-7.32zM2.569 22.21l3.020 6.881v1.909h-4.565c-0.023-1.519 0.034-6.289 1.545-8.79z"></path>
</symbol>
<symbol id="icon-insurance" viewBox="0 0 27 32">
<title>insurance</title>
<path d="M0.541 13.713c0 0.356-0.541 0.356-0.541 0 0-7.572 6.141-13.713 13.713-13.713 7.575 0 13.713 6.141 13.713 13.713 0 0.356-0.537 0.356-0.537 0 0-5.118-8.41-5.121-8.41 0 0 0.356-0.554 0.356-0.554 0 0-5.105-8.423-5.105-8.423 0 0 0.356-0.554 0.356-0.554 0 0-5.095-8.407-5.131-8.407 0zM8.996 11.725c0.146-2.946 0.609-5.587 1.282-7.604 0.537-1.602 1.217-2.82 1.988-3.503-5.782 0.631-10.463 5.014-11.508 10.699 1.991-2.871 6.588-2.642 8.239 0.408zM17.882 11.592c-0.149-2.833-0.599-5.367-1.246-7.3-1.67-5.002-4.176-5.002-5.846 0-0.647 1.933-1.094 4.467-1.246 7.3 1.797-3.053 6.542-3.053 8.339 0zM26.668 11.317c-1.042-5.685-5.723-10.068-11.508-10.699 0.774 0.683 1.45 1.9 1.988 3.503 0.673 2.017 1.136 4.658 1.282 7.604 1.661-3.066 6.27-3.247 8.239-0.408z"></path>
<path d="M11.913 19.987v-2.784c-0.502 0.333-0.897 0.848-0.897 1.476 0 0.612 0.401 1.016 0.897 1.308zM12.454 20.851c-0.961-0.44-1.975-0.955-1.975-2.172 0-1.256 0.955-1.884 1.975-2.353z"></path>
<path d="M15.513 24.188v2.816c0.508-0.337 0.906-0.855 0.906-1.483 0-0.618-0.408-1.036-0.906-1.334zM14.975 23.321c0.965 0.447 1.984 0.978 1.984 2.201 0 1.259-0.961 1.887-1.984 2.353z"></path>
<path d="M15.513 14.033c2.214 0.511 4.49 2.169 4.49 4.645 0 2.12-3.584 2.043-3.584 0 0-0.631-0.398-1.149-0.906-1.483v3.962c2.049 0.67 4.497 1.871 4.497 4.364 0 2.48-2.276 4.134-4.497 4.642-0.010 2.36-3.593 2.357-3.6-0.003-1.262-0.291-2.36-0.881-3.153-1.661-0.832-0.822-1.324-1.855-1.324-2.978 0-2.088 3.58-2.088 3.58 0 0 0.625 0.395 1.14 0.897 1.473v-3.959c-2.033-0.657-4.493-1.894-4.493-4.364 0-2.48 2.276-4.134 4.493-4.642 0.010-2.36 3.593-2.357 3.6 0.003zM12.454 14.040v0.431c-2.107 0.418-4.497 1.768-4.497 4.202 0 2.34 2.622 3.389 4.497 3.969v5.231c-1.013-0.463-1.975-1.088-1.975-2.35 0-1.379-2.506-1.379-2.506 0 0 0.974 0.434 1.874 1.165 2.593 0.929 0.919 2.056 1.356 3.315 1.606v0.434c0 1.661 2.522 1.661 2.522 0v-0.431c2.114-0.421 4.493-1.771 4.493-4.202 0-2.363-2.616-3.38-4.493-3.972v-5.228c1.016 0.463 1.984 1.088 1.984 2.357 0 1.343 2.502 1.398 2.502 0 0-2.431-2.376-3.784-4.487-4.205v-0.434c0-1.661-2.522-1.661-2.522 0z"></path>
</symbol>
<symbol id="icon-mobile" viewBox="0 0 31 32">
<title>mobile</title>
<path d="M29.302 0h-15.621c-1.017 0-1.844 0.827-1.844 1.844v6.466l-11.605 4.871c-0.131 0.055-0.221 0.179-0.231 0.321s0.060 0.278 0.183 0.351l1.48 0.886v9.439c-0.757 0.173-1.325 0.85-1.325 1.66v0.91c0 0.209 0.169 0.378 0.378 0.378h2.65c0.209 0 0.378-0.169 0.378-0.378v-0.91c0-0.809-0.568-1.486-1.325-1.659v-8.988l1.17 0.7c-0.036 0.27-0.005-0.47-0.017 4.395 0 1.599 4.096 2.456 8.264 2.505v7.367c0 0.381 0.117 0.734 0.316 1.028 0.331 0.49 0.892 0.813 1.527 0.813h15.621c1.016 0 1.842-0.827 1.842-1.842-0 0.050-0.002-1.56 0-28.313 0-1.003-0.829-1.844-1.841-1.844zM2.989 25.839v0.532h-1.894v-0.532c0-0.524 0.424-0.95 0.945-0.95 0.524 0 0.95 0.426 0.95 0.95zM29.302 31.242h-15.621c-0.375 0-0.706-0.19-0.902-0.478-0.117-0.173-0.186-0.382-0.186-0.607v-2.553h17.792v2.554c0 0.592-0.493 1.084-1.084 1.084zM30.386 26.848h-17.793v-4.054c2.035-0.023 8.269-0.471 8.269-2.507-0.002-3.056 0.005-4.295-0.010-4.4l3.394-2.033c0.122-0.073 0.193-0.209 0.183-0.351s-0.099-0.266-0.231-0.321l-11.605-4.871v-3.157h17.793v21.695zM12.215 17.778c-2.096 0-6.133 0.271-7.886 1.416 0.011-3.502-0.122-3.274 0.31-3.571 1.089-0.802 4.205-1.362 7.576-1.362 1.471 0 7.891 0.404 7.891 1.764v3.17c-1.77-1.156-5.786-1.416-7.891-1.416zM12.593 1.844c0-0.599 0.487-1.087 1.087-1.087h15.621c0.6 0 1.085 0.494 1.085 1.086v2.554h-17.792zM12.215 8.971l11.002 4.618-2.726 1.631c-1.449-1.437-6.244-1.716-8.276-1.716-2.035 0-6.83 0.28-8.276 1.716l-2.727-1.632zM4.329 20.287c0-0.612 2.708-1.753 7.886-1.753 5.181 0 7.891 1.142 7.891 1.753s-2.71 1.754-7.891 1.754c-5.178 0-7.886-1.142-7.886-1.754z"></path>
<path d="M21.491 28.174c-0.689 0-1.25 0.561-1.25 1.25s0.561 1.25 1.25 1.25c0.689 0 1.25-0.561 1.25-1.25s-0.561-1.25-1.25-1.25zM21.491 29.918c-0.272 0-0.494-0.222-0.494-0.495s0.222-0.494 0.494-0.494c0.273 0 0.494 0.221 0.494 0.494s-0.222 0.495-0.494 0.495z"></path>
<path d="M20.049 2.2h2.883v0.756h-2.883v-0.756z"></path>
</symbol>
<symbol id="icon-open_book" viewBox="0 0 44 32">
<title>open_book</title>
<path d="M5.477 4.52h13.745v1.029h-13.745v-1.029z"></path>
<path d="M7.536 8.357h11.687v1.029h-11.687v-1.029z"></path>
<path d="M5.477 12.195h13.745v1.029h-13.745v-1.029z"></path>
<path d="M7.536 16.032h11.687v1.029h-11.687v-1.029z"></path>
<path d="M5.477 19.869h13.745v1.029h-13.745v-1.029z"></path>
<path d="M7.536 23.707h11.687v1.029h-11.687v-1.029z"></path>
<path d="M24.345 4.52h13.745v1.029h-13.745v-1.029z"></path>
<path d="M24.345 8.357h11.687v1.029h-11.687v-1.029z"></path>
<path d="M24.345 12.195h13.745v1.029h-13.745v-1.029z"></path>
<path d="M24.345 16.032h11.687v1.029h-11.687v-1.029z"></path>
<path d="M24.345 19.869h13.745v1.029h-13.745v-1.029z"></path>
<path d="M24.345 23.707h11.687v1.029h-11.687v-1.029z"></path>
<path d="M43.053 3.348h-1.887v-2.834c0-0.284-0.23-0.515-0.515-0.515h-15.382c-1.501 0-2.802 0.812-3.485 2.026-0.683-1.215-1.985-2.026-3.486-2.026h-15.382c-0.284 0-0.515 0.231-0.515 0.515v2.834h-1.887c-0.284 0-0.515 0.231-0.515 0.515v27.622c0 0.284 0.231 0.515 0.515 0.515 5.166 0 37.354 0 42.538 0 0.284 0 0.515-0.23 0.515-0.515v-27.622c0-0.284-0.23-0.515-0.515-0.515zM25.269 1.029h14.868c0 4.608 0 16.747 0 27.561h-15.966c-0.708 0-1.415 0.298-1.873 0.685v-25.282c0-1.643 1.315-2.964 2.971-2.964zM3.431 1.029h14.868c1.609 0 2.911 1.252 2.965 2.851 0.001 0.022 0.003 0.091 0.006 0.113v25.28c-0.456-0.386-1.157-0.683-1.866-0.683h-15.972c0-10.811 0-22.954 0-27.561zM1.029 4.378h1.372v24.727c0 0.284 0.231 0.515 0.515 0.515h16.487c0.784 0 1.542 0.515 1.785 1.351h-20.159zM42.538 30.971h-20.159c0.244-0.841 0.995-1.351 1.792-1.351h16.48c0.284 0 0.515-0.23 0.515-0.515v-24.727h1.372z"></path>
</symbol>
<symbol id="icon-study" viewBox="0 0 30 32">
<title>study</title>
<path d="M29.677 4.975c0-0.001-0.001-0.001-0.001-0.002-0.007-0.016-0.015-0.031-0.024-0.045-0.001-0.001-0.002-0.002-0.002-0.003-0.010-0.015-0.021-0.029-0.034-0.042l-4.799-4.799c-0.012-0.012-0.026-0.023-0.041-0.033-0.003-0.002-0.006-0.004-0.009-0.006-0.012-0.007-0.024-0.014-0.036-0.019-0.004-0.002-0.007-0.003-0.011-0.005-0.031-0.013-0.065-0.019-0.099-0.020-0.002 0-0.004-0-0.005-0h-21.143c-0.157 0-0.283 0.127-0.283 0.284v29.271c0 0.019 0.002 0.037 0.006 0.056 0.002 0.008 0.005 0.015 0.007 0.023 0.003 0.010 0.006 0.020 0.009 0.030 0.004 0.009 0.009 0.017 0.014 0.026 0.004 0.007 0.008 0.016 0.013 0.023 0.010 0.014 0.021 0.028 0.033 0.040 0.001 0.001 0.001 0.002 0.003 0.003l2.162 2.161c0.111 0.111 0.29 0.111 0.401 0l1.962-1.961 1.961 1.961c0.055 0.056 0.128 0.083 0.201 0.083s0.145-0.027 0.2-0.083l1.961-1.96 1.962 1.96c0.111 0.111 0.29 0.111 0.401 0l1.961-1.96 1.961 1.96c0.111 0.111 0.29 0.111 0.401 0l1.963-1.961 1.961 1.961c0.055 0.056 0.128 0.083 0.2 0.083s0.145-0.027 0.201-0.083l1.961-1.96 1.962 1.96c0.11 0.111 0.29 0.111 0.401 0l2.162-2.161c0.004-0.004 0.007-0.009 0.011-0.014 0.008-0.009 0.017-0.019 0.024-0.029 0.007-0.009 0.011-0.020 0.016-0.030 0.003-0.007 0.007-0.012 0.009-0.019 0.006-0.013 0.009-0.026 0.012-0.039 0.001-0.005 0.003-0.009 0.005-0.013 0.004-0.019 0.006-0.038 0.006-0.058v-24.47c-0.001-0.037-0.008-0.074-0.023-0.108zM24.899 0.969l3.831 3.83h-3.831zM29.131 29.437l-1.878 1.878-1.962-1.961c-0.11-0.11-0.29-0.11-0.401 0l-1.961 1.961-1.961-1.961c-0.111-0.11-0.29-0.11-0.401 0l-1.962 1.961-1.96-1.96c0-0-0-0.001-0-0.001-0.055-0.055-0.128-0.083-0.201-0.083s-0.145 0.028-0.2 0.083c-0 0-0 0-0 0l-1.96 1.96-1.962-1.961c-0.111-0.11-0.29-0.11-0.401 0l-1.961 1.961-1.961-1.961c-0.111-0.11-0.29-0.11-0.401 0l-1.962 1.961-1.878-1.878v-28.87h20.576v4.516c0 0.157 0.127 0.284 0.284 0.284h4.515z"></path>
<path d="M5.872 3.251h9.29c0.157 0 0.284-0.127 0.284-0.284s-0.127-0.284-0.284-0.284h-9.29c-0.157 0-0.284 0.127-0.284 0.284s0.127 0.284 0.284 0.284z"></path>
<path d="M5.872 5.005h14.899c0.157 0 0.284-0.127 0.284-0.284s-0.127-0.284-0.284-0.284h-14.899c-0.157 0-0.284 0.127-0.284 0.284s0.127 0.284 0.284 0.284z"></path>
<path d="M5.588 6.58v9.186c0 0.157 0.127 0.284 0.284 0.284h21.144c0.157 0 0.283-0.127 0.283-0.284v-9.186c0-0.157-0.127-0.284-0.283-0.284h-21.144c-0.157 0-0.284 0.127-0.284 0.284zM11.858 6.864h14.873v2.442h-14.873zM11.858 9.873h14.873v2.441h-14.873zM11.858 12.881h14.873v2.602h-14.873zM6.156 6.864h5.135v2.442h-5.135zM6.156 9.873h5.135v2.441h-5.135zM6.156 12.881h5.135v2.602h-5.135z"></path>
<path d="M27.016 17.327h-21.144c-0.157 0-0.284 0.127-0.284 0.284v9.186c0 0.157 0.127 0.283 0.284 0.283s0.283-0.127 0.283-0.283v-2.885h5.135v2.885c0 0.157 0.127 0.283 0.283 0.283s0.284-0.127 0.284-0.283v-2.885h14.873v2.885c0 0.157 0.127 0.283 0.284 0.283s0.283-0.127 0.283-0.283v-9.186c0.001-0.157-0.126-0.284-0.283-0.284zM11.291 23.344h-5.135v-2.44h5.135zM11.291 20.336h-5.135v-2.441h5.135zM26.732 23.344h-14.873v-2.44h14.873zM26.732 20.336h-14.873v-2.441h14.873z"></path>
<path d="M1.844 0c-0.157 0-0.284 0.127-0.284 0.284v29.271c0 0.156 0.127 0.283 0.284 0.283s0.284-0.127 0.284-0.283v-29.271c0-0.157-0.127-0.284-0.284-0.284z"></path>
<path d="M0.284 0c-0.157 0-0.284 0.127-0.284 0.284v29.271c0 0.156 0.127 0.283 0.284 0.283s0.283-0.127 0.283-0.283v-29.271c0-0.157-0.127-0.284-0.283-0.284z"></path>
</symbol>
<symbol id="icon-vk" viewBox="0 0 57 32">
<title>vk</title>
<path fill="#436eab" style="fill: var(--color1, #436eab)" d="M48.666 20.347c1.876 1.831 3.855 3.554 5.538 5.57 0.743 0.896 1.447 1.82 1.985 2.86 0.763 1.478 0.072 3.104-1.253 3.193l-8.238-0.004c-2.125 0.176-3.82-0.679-5.245-2.132-1.141-1.162-2.197-2.398-3.294-3.599-0.45-0.491-0.92-0.953-1.482-1.318-1.125-0.73-2.101-0.506-2.743 0.666-0.654 1.193-0.803 2.514-0.867 3.843-0.088 1.94-0.675 2.45-2.623 2.539-4.164 0.196-8.116-0.434-11.788-2.534-3.237-1.852-5.747-4.466-7.931-7.426-4.253-5.763-7.511-12.096-10.439-18.607-0.659-1.467-0.177-2.254 1.441-2.282 2.687-0.052 5.374-0.048 8.065-0.004 1.092 0.016 1.815 0.642 2.237 1.674 1.454 3.575 3.233 6.976 5.466 10.129 0.595 0.839 1.201 1.679 2.065 2.27 0.955 0.654 1.683 0.437 2.132-0.627 0.285-0.675 0.41-1.402 0.474-2.124 0.213-2.486 0.241-4.969-0.132-7.446-0.229-1.546-1.1-2.547-2.643-2.84-0.787-0.149-0.67-0.442-0.289-0.892 0.662-0.775 1.285-1.258 2.526-1.258h9.31c1.466 0.289 1.791 0.948 1.992 2.422l0.008 10.341c-0.016 0.571 0.285 2.265 1.313 2.643 0.823 0.269 1.365-0.389 1.859-0.911 2.229-2.366 3.82-5.162 5.241-8.057 0.631-1.273 1.173-2.595 1.699-3.916 0.389-0.98 1.001-1.462 2.105-1.441l8.96 0.008c0.266 0 0.535 0.004 0.792 0.048 1.51 0.257 1.924 0.907 1.457 2.381-0.735 2.313-2.164 4.241-3.562 6.178-1.494 2.068-3.093 4.064-4.574 6.144-1.362 1.9-1.253 2.857 0.438 4.507z"></path>
</symbol>
</defs>
</svg>
